<?xml version="1.0" encoding="UTF-8" standalone="no"?>
<!-- Created with Inkscape (http://www.inkscape.org/) -->

<svg
   width="300mm"
   height="300mm"
   viewBox="0 0 300 300"
   version="1.1"
   id="svg1"
   xml:space="preserve"
   xmlns="http://www.w3.org/2000/svg"
   xmlns:svg="http://www.w3.org/2000/svg"><defs
     id="defs1" /><g
     id="layer1"><rect
       style="fill:#000000;fill-opacity:1;stroke:#000000;stroke-width:2.06173;stroke-opacity:1"
       id="rect1"
       width="297.93826"
       height="297.93826"
       x="1.0308664"
       y="1.0308664"
       ry="24.278399" /><path
       style="fill:#8a12ff;fill-opacity:1;stroke:#ffffff;stroke-width:3.008;stroke-dasharray:none;stroke-opacity:1"
       d="m 102.71953,278.70334 c 2.34839,-6.38918 4.20504,-11.53251 6.75344,-18.70873 3.61485,-10.17921 5.47914,-15.32529 6.16471,-17.01666 0.33195,-0.81894 2.54373,-6.94493 4.91508,-13.61333 2.37136,-6.6684 4.57065,-12.7944 4.88731,-13.61333 0.31665,-0.81892 1.0566,-2.82903 1.64431,-4.46687 4.69565,-13.08606 13.60878,-37.74307 14.11258,-39.04058 0.3425,-0.88216 0.62279,-1.93506 0.62284,-2.3398 8e-5,-0.69242 -2.02461,-0.72889 -34.3078,-0.61783 -27.790989,0.0956 -34.227083,0.0144 -33.882484,-0.42541 1.326544,-1.69456 27.489164,-34.63588 37.766694,-47.55197 7.93732,-9.97512 18.97664,-23.863643 25.69891,-32.331673 3.8077,-4.79657 7.25566,-9.11384 7.66212,-9.59395 0.40647,-0.48009 2.1609,-2.68163 3.89874,-4.8923 3.83244,-4.875133 7.85708,-9.946624 10.61695,-13.378517 1.12896,-1.403892 4.33278,-5.424069 7.11956,-8.93375 2.7868,-3.509698 9.94261,-12.507244 15.90179,-19.994579 5.95918,-7.487329 12.02085,-15.10951 13.47036,-16.938175 1.4495,-1.828667 2.63546,-3.197836 2.63546,-3.042597 0,0.15524 -3.17794,9.021759 -7.06209,19.703382 -3.88417,10.681617 -8.46023,23.3456 -10.16903,28.142172 -1.70882,4.796572 -6.21054,17.240004 -10.00385,27.652074 -3.79329,10.41205 -7.14334,19.696803 -7.44454,20.632703 -0.30118,0.93591 -1.71478,4.91913 -3.14133,8.85157 -1.42654,3.93244 -2.59372,7.32933 -2.59372,7.54863 0,0.24381 13.30536,0.44102 34.24754,0.50759 l 34.24752,0.10879 -2.06856,2.55251 c -1.76942,2.18336 -13.88717,17.40272 -32.17833,40.41456 -2.60374,3.27571 -10.37214,13.03902 -17.26313,21.69624 -6.89099,8.65723 -16.16394,20.31384 -20.60654,25.9036 -4.4426,5.58973 -12.73476,16.02308 -18.42702,23.1852 -5.69224,7.1621 -12.02757,15.12783 -14.07848,17.70159 -2.05093,2.57376 -7.22392,9.08265 -11.49556,14.46417 -4.27163,5.38152 -8.03714,10.0674 -8.36781,10.4131 -0.33066,0.34569 -0.005,-0.99438 0.72436,-2.97791 z"
       id="path6" /><path
       style="display:none;fill:#3dd200;fill-opacity:1;stroke-width:0.485603"
       d="m 153.86052,172.98841 c -0.72806,-0.25953 -1.34921,-0.81576 -1.80159,-1.61332 -0.34929,-0.61583 -0.399,-0.82468 -0.399,-1.67647 0,-0.85422 0.0451,-1.04243 0.36947,-1.54178 0.77872,-1.19886 1.65597,-1.7014 2.97108,-1.70199 1.07036,-3.4e-4 1.53988,0.20321 2.40784,1.04463 l 0.60909,0.59045 0.99694,-0.28986 c 1.96554,-0.57147 4.03213,-1.76293 5.59729,-3.22707 0.83356,-0.77975 2.01652,-2.22183 2.01652,-2.4582 0,-0.0637 -0.30354,-0.1166 -0.67453,-0.11764 -0.82372,-0.002 -1.2191,-0.18932 -1.60217,-0.75775 -0.29179,-0.433 -0.29295,-0.45337 -0.29295,-5.17594 0,-6.24158 -0.15974,-5.91439 2.93596,-6.01331 l 2.01062,-0.0643 0.0394,-0.96361 c 0.0586,-1.43232 -0.18963,-3.773 -0.53158,-5.0121 -1.24723,-4.51957 -4.73262,-8.17272 -9.18519,-9.62725 -1.69793,-0.55467 -2.83841,-0.69491 -5.00093,-0.61495 -1.5411,0.057 -2.11244,0.1344 -3.05234,0.41367 -2.44517,0.72652 -4.47647,1.91301 -6.16457,3.60076 -2.92248,2.92185 -4.28157,6.47357 -4.15349,10.85442 l 0.0394,1.34906 1.91237,0.0357 c 1.68822,0.0314 1.95575,0.0665 2.28251,0.29921 0.74747,0.53225 0.7517,0.56465 0.7517,5.74267 0,6.29136 0.22049,5.93067 -3.62702,5.9337 -2.7779,0.002 -2.51574,0.18516 -3.36313,-2.34756 -0.76466,-2.28545 -0.84626,-3.12441 -0.84626,-8.70006 0,-5.46005 0.0831,-6.37834 0.76669,-8.47013 2.44342,-7.47714 9.88661,-12.36537 17.6551,-11.59476 7.72711,0.76649 13.8246,6.38926 15.21041,14.0262 0.18583,1.02408 0.22125,2.04804 0.22,6.3599 -0.001,4.85628 -0.0175,5.21187 -0.29145,6.45704 -0.31332,1.42393 -0.96018,3.32388 -1.48268,4.35497 -1.04565,2.0635 -3.0813,4.45115 -5.0127,5.87949 -1.74968,1.29394 -4.6751,2.65083 -6.39873,2.96787 -0.37531,0.069 -0.54602,0.20684 -0.86396,0.69753 -0.85256,1.31573 -2.56228,1.89042 -4.0482,1.36075 z"
       id="path7" /></g></svg>
